<?xml version="1.0" encoding="utf-8"?>
<!-- Generator: Adobe Illustrator 25.4.1, SVG Export Plug-In . SVG Version: 6.00 Build 0)  -->
<svg version="1.1" id="Layer_1" xmlns="http://www.w3.org/2000/svg" xmlns:xlink="http://www.w3.org/1999/xlink" x="0px" y="0px"
	 viewBox="0 0 141.6 136.35" style="enable-background:new 0 0 141.6 136.35;" xml:space="preserve">
<style type="text/css">
	.st0{fill:#FCD226;}
	.st1{fill:#F9B21B;}
	.st2{fill:#F7E74C;}
	.st3{fill:#832D1A;}
</style>
<g>
	<path class="st0" d="M131.84,37.42c-8.3-15-21.59-27.52-37.77-33.55c-11.43-4.33-24.12-4.92-36-2.3
		c-23.13,4.6-43.93,20.8-53.14,42.64c-5.28,12.37-6.3,26.41-3.17,39.47c3.34,14.31,11.61,27.38,22.96,36.68
		c12.68,10.47,29.15,16.35,45.6,15.97c18.57,0.02,37.51-6.1,51.55-18.5c10.07-8.82,17.06-21.14,19.03-34.41
		C143.24,67.63,139.51,51.3,131.84,37.42z"/>
	<path class="st1" d="M4.93,44.21C14.14,22.37,34.94,6.17,58.07,1.57c-1.8,1.47-3.57,2.98-5.4,4.42
		c-10.62,8.84-19.36,20.38-23.3,33.75C27.11,46.9,27,54.47,26.76,61.91c-0.3,14.17,0.25,28.7,5.01,42.19
		c2.11,5.53,4.72,11.02,8.74,15.43c4.13,4.64,8.9,8.84,14.64,11.36c4.78,2.58,10.12,3.64,15.19,5.45
		c-16.45,0.37-32.93-5.5-45.6-15.97c-11.36-9.3-19.62-22.37-22.96-36.68C-1.36,70.62-0.35,56.58,4.93,44.21z"/>
	<path class="st2" d="M77.63,5.59c2.83,0.14,9.77,1.3,10.52,7.02c0.22,1.65-2.3,0.17-4.98-0.99c-1.66-0.72-4.58-0.96-6.87-1.08
		c-6.07-0.33-9.79,2.12-10.66,1.04C64.37,10.02,69.13,5.17,77.63,5.59z"/>
	<g>
		<path class="st1" d="M92.17,31.41c2.53-2.14,6.38-2.58,9.19-0.7c5.91,3.57,7.29,12.27,3.53,17.86c-1.53,2.19-4.32,3.07-6.9,2.84
			c-3.02-0.78-5.85-2.54-7.51-5.23C87.52,41.64,88.57,35.28,92.17,31.41z"/>
		<path class="st3" d="M95.55,30.05c2.53-2.14,6.38-2.58,9.19-0.7c5.91,3.57,7.29,12.27,3.53,17.86c-1.53,2.19-4.32,3.07-6.9,2.84
			c-3.02-0.78-5.85-2.54-7.51-5.23C90.9,40.28,91.96,33.92,95.55,30.05z"/>
	</g>
	<g>
		<path class="st1" d="M37.99,37.93c2.6-2.08,6.48-2.26,9.21-0.34c5.49,3.51,6.86,11.43,3.82,16.98c-1.04,1.91-3.04,3.13-5.15,3.5
			c-3.66,0.21-7.24-1.66-9.37-4.62C33.07,48.86,33.98,41.88,37.99,37.93z"/>
		<path class="st3" d="M41.38,36.62c2.6-2.08,6.48-2.26,9.21-0.34c5.49,3.51,6.86,11.43,3.82,16.98c-1.04,1.91-3.04,3.13-5.15,3.5
			c-3.66,0.21-7.24-1.66-9.37-4.62C36.47,47.55,37.38,40.57,41.38,36.62z"/>
	</g>
	<g>
		<path class="st1" d="M60.63,100c-1.3-0.67-2.11-2.28-1.06-3.56c7.93,6.11,17.62,11.29,27.97,9.84c-0.59,0.49-1.26,0.93-2.06,0.88
			c-3.08,0.19-6.21,0.44-9.25-0.21C70.6,105.78,65.44,103.05,60.63,100z"/>
		<path class="st3" d="M104.49,88.34c1.5-2.86,2.58-7.65,5.2-8.26c1.57-0.34,2.76,1.03,2.62,2.43c-1.3,7.16-7.19,14.79-13.96,19.29
			c-3.2,2.29-6.91,3.87-10.82,4.47c-10.35,1.45-20.04-3.72-27.97-9.84c-1.93-1.61-1.96-5.61,0.55-6.04
			c5.81,2.32,11.06,5.77,16.8,8.25c5.82,2.45,12.72,1.83,18.18-1.26C98.92,95.22,102.21,92.09,104.49,88.34z"/>
	</g>
</g>
</svg>
